<mxfile host="app.diagrams.net" agent="Mozilla/5.0 (Windows NT 10.0; Win64; x64) AppleWebKit/537.36 (KHTML, like Gecko) Chrome/140.0.0.0 Safari/537.36" version="28.2.5">
  <diagram name="PÃ¡gina-1" id="oHoajZv1UkP3cZxkjlU_">
    <mxGraphModel grid="1" page="1" gridSize="10" guides="1" tooltips="1" connect="1" arrows="1" fold="1" pageScale="1" pageWidth="827" pageHeight="1169" background="#ffffff" math="0" shadow="0">
      <root>
        <mxCell id="0" />
        <mxCell id="1" parent="0" />
        <mxCell id="k1fIb4RxcU1VKoB4foVe-16" style="edgeStyle=orthogonalEdgeStyle;rounded=0;orthogonalLoop=1;jettySize=auto;html=1;entryX=0.5;entryY=0;entryDx=0;entryDy=0;endArrow=none;endFill=0;" edge="1" parent="1" source="k1fIb4RxcU1VKoB4foVe-6" target="k1fIb4RxcU1VKoB4foVe-13">
          <mxGeometry relative="1" as="geometry" />
        </mxCell>
        <mxCell id="k1fIb4RxcU1VKoB4foVe-19" style="edgeStyle=orthogonalEdgeStyle;shape=connector;rounded=0;orthogonalLoop=1;jettySize=auto;html=1;entryX=0.5;entryY=0;entryDx=0;entryDy=0;strokeColor=default;align=center;verticalAlign=middle;fontFamily=Helvetica;fontSize=11;fontColor=default;labelBackgroundColor=default;endArrow=none;endFill=0;" edge="1" parent="1" source="k1fIb4RxcU1VKoB4foVe-6" target="k1fIb4RxcU1VKoB4foVe-12">
          <mxGeometry relative="1" as="geometry">
            <Array as="points">
              <mxPoint x="240" y="280" />
              <mxPoint x="-90" y="280" />
            </Array>
          </mxGeometry>
        </mxCell>
        <mxCell id="k1fIb4RxcU1VKoB4foVe-20" style="edgeStyle=orthogonalEdgeStyle;shape=connector;rounded=0;orthogonalLoop=1;jettySize=auto;html=1;entryX=0.5;entryY=0;entryDx=0;entryDy=0;strokeColor=default;align=center;verticalAlign=middle;fontFamily=Helvetica;fontSize=11;fontColor=default;labelBackgroundColor=default;endArrow=none;endFill=0;" edge="1" parent="1" source="k1fIb4RxcU1VKoB4foVe-6" target="k1fIb4RxcU1VKoB4foVe-14">
          <mxGeometry relative="1" as="geometry">
            <Array as="points">
              <mxPoint x="240" y="280" />
              <mxPoint x="630" y="280" />
            </Array>
          </mxGeometry>
        </mxCell>
        <mxCell id="k1fIb4RxcU1VKoB4foVe-6" value="" style="strokeWidth=2;html=1;shape=mxgraph.flowchart.merge_or_storage;whiteSpace=wrap;fillColor=#b1ddf0;strokeColor=#10739e;" vertex="1" parent="1">
          <mxGeometry x="212.5" y="200" width="55" height="35" as="geometry" />
        </mxCell>
        <mxCell id="k1fIb4RxcU1VKoB4foVe-7" value="USUARIO" style="whiteSpace=wrap;html=1;align=center;fillColor=#1ba1e2;strokeColor=#006EAF;fontColor=#ffffff;" vertex="1" parent="1">
          <mxGeometry x="190" y="120" width="100" height="40" as="geometry" />
        </mxCell>
        <mxCell id="k1fIb4RxcU1VKoB4foVe-27" value="" style="edgeStyle=orthogonalEdgeStyle;shape=connector;rounded=0;orthogonalLoop=1;jettySize=auto;html=1;strokeColor=default;align=center;verticalAlign=middle;fontFamily=Helvetica;fontSize=11;fontColor=default;labelBackgroundColor=default;endArrow=none;endFill=0;" edge="1" parent="1" source="k1fIb4RxcU1VKoB4foVe-9" target="k1fIb4RxcU1VKoB4foVe-25">
          <mxGeometry relative="1" as="geometry" />
        </mxCell>
        <mxCell id="k1fIb4RxcU1VKoB4foVe-9" value="SERVICIO" style="whiteSpace=wrap;html=1;align=center;fillColor=#1ba1e2;fontColor=#ffffff;strokeColor=#006EAF;" vertex="1" parent="1">
          <mxGeometry x="342.5" y="520" width="100" height="40" as="geometry" />
        </mxCell>
        <mxCell id="k1fIb4RxcU1VKoB4foVe-10" value="CITA" style="whiteSpace=wrap;html=1;align=center;fillColor=#1ba1e2;fontColor=#ffffff;strokeColor=#006EAF;" vertex="1" parent="1">
          <mxGeometry x="-140" y="520" width="100" height="40" as="geometry" />
        </mxCell>
        <mxCell id="k1fIb4RxcU1VKoB4foVe-11" value="" style="verticalLabelPosition=bottom;verticalAlign=top;html=1;shape=mxgraph.basic.arc;startAngle=0.2874881480022106;endAngle=0.7125118519977893;" vertex="1" parent="1">
          <mxGeometry x="215" y="200" width="50" height="50" as="geometry" />
        </mxCell>
        <mxCell id="k1fIb4RxcU1VKoB4foVe-52" value="" style="edgeStyle=orthogonalEdgeStyle;shape=connector;rounded=0;orthogonalLoop=1;jettySize=auto;html=1;strokeColor=default;align=center;verticalAlign=middle;fontFamily=Helvetica;fontSize=11;fontColor=default;labelBackgroundColor=default;endArrow=none;endFill=0;" edge="1" parent="1" source="k1fIb4RxcU1VKoB4foVe-12" target="k1fIb4RxcU1VKoB4foVe-21">
          <mxGeometry relative="1" as="geometry" />
        </mxCell>
        <mxCell id="k1fIb4RxcU1VKoB4foVe-12" value="CLIENTE" style="whiteSpace=wrap;html=1;align=center;fillColor=#1ba1e2;strokeColor=#006EAF;fontColor=#ffffff;" vertex="1" parent="1">
          <mxGeometry x="-140" y="320" width="100" height="40" as="geometry" />
        </mxCell>
        <mxCell id="k1fIb4RxcU1VKoB4foVe-54" value="" style="edgeStyle=orthogonalEdgeStyle;shape=connector;rounded=0;orthogonalLoop=1;jettySize=auto;html=1;strokeColor=default;align=center;verticalAlign=middle;fontFamily=Helvetica;fontSize=11;fontColor=default;labelBackgroundColor=default;endArrow=none;endFill=0;" edge="1" parent="1" source="k1fIb4RxcU1VKoB4foVe-13" target="k1fIb4RxcU1VKoB4foVe-53">
          <mxGeometry relative="1" as="geometry" />
        </mxCell>
        <mxCell id="k1fIb4RxcU1VKoB4foVe-13" value="ESTILISTA" style="whiteSpace=wrap;html=1;align=center;fillColor=#1ba1e2;fontColor=#ffffff;strokeColor=#006EAF;" vertex="1" parent="1">
          <mxGeometry x="190" y="320" width="100" height="40" as="geometry" />
        </mxCell>
        <mxCell id="k1fIb4RxcU1VKoB4foVe-32" value="" style="edgeStyle=orthogonalEdgeStyle;shape=connector;rounded=0;orthogonalLoop=1;jettySize=auto;html=1;strokeColor=default;align=center;verticalAlign=middle;fontFamily=Helvetica;fontSize=11;fontColor=default;labelBackgroundColor=default;endArrow=none;endFill=0;" edge="1" parent="1" source="k1fIb4RxcU1VKoB4foVe-14" target="k1fIb4RxcU1VKoB4foVe-31">
          <mxGeometry relative="1" as="geometry" />
        </mxCell>
        <mxCell id="k1fIb4RxcU1VKoB4foVe-14" value="ADMINISTRADOR" style="whiteSpace=wrap;html=1;align=center;fillColor=#1ba1e2;fontColor=#ffffff;strokeColor=#006EAF;" vertex="1" parent="1">
          <mxGeometry x="580" y="320" width="100" height="40" as="geometry" />
        </mxCell>
        <mxCell id="k1fIb4RxcU1VKoB4foVe-17" style="edgeStyle=orthogonalEdgeStyle;shape=connector;rounded=0;orthogonalLoop=1;jettySize=auto;html=1;entryX=0.5;entryY=0;entryDx=0;entryDy=0;entryPerimeter=0;strokeColor=default;align=center;verticalAlign=middle;fontFamily=Helvetica;fontSize=11;fontColor=default;labelBackgroundColor=default;endArrow=none;endFill=0;" edge="1" parent="1" source="k1fIb4RxcU1VKoB4foVe-7" target="k1fIb4RxcU1VKoB4foVe-6">
          <mxGeometry relative="1" as="geometry" />
        </mxCell>
        <mxCell id="k1fIb4RxcU1VKoB4foVe-29" value="" style="edgeStyle=orthogonalEdgeStyle;shape=connector;rounded=0;orthogonalLoop=1;jettySize=auto;html=1;strokeColor=default;align=center;verticalAlign=middle;fontFamily=Helvetica;fontSize=11;fontColor=default;labelBackgroundColor=default;endArrow=none;endFill=0;" edge="1" parent="1" source="k1fIb4RxcU1VKoB4foVe-21" target="k1fIb4RxcU1VKoB4foVe-10">
          <mxGeometry relative="1" as="geometry" />
        </mxCell>
        <mxCell id="k1fIb4RxcU1VKoB4foVe-21" value="&lt;span&gt;reserva&lt;/span&gt;" style="strokeWidth=1;html=1;shape=mxgraph.flowchart.decision;whiteSpace=wrap;fontFamily=Helvetica;fontSize=11;labelBackgroundColor=none;perimeterSpacing=0;fillColor=#647687;strokeColor=#314354;fontColor=#ffffff;" vertex="1" parent="1">
          <mxGeometry x="-132.5" y="420" width="85" height="40" as="geometry" />
        </mxCell>
        <mxCell id="k1fIb4RxcU1VKoB4foVe-25" value="ofrece" style="strokeWidth=1;html=1;shape=mxgraph.flowchart.decision;whiteSpace=wrap;fontFamily=Helvetica;fontSize=11;labelBackgroundColor=none;perimeterSpacing=0;fillColor=#647687;strokeColor=#314354;fontColor=#ffffff;" vertex="1" parent="1">
          <mxGeometry x="350" y="420" width="85" height="40" as="geometry" />
        </mxCell>
        <mxCell id="k1fIb4RxcU1VKoB4foVe-30" value="EXCEPCION HORARIO" style="whiteSpace=wrap;html=1;align=center;fillColor=#1ba1e2;fontColor=#ffffff;strokeColor=#006EAF;" vertex="1" parent="1">
          <mxGeometry x="580" y="520" width="100" height="40" as="geometry" />
        </mxCell>
        <mxCell id="k1fIb4RxcU1VKoB4foVe-33" value="" style="edgeStyle=orthogonalEdgeStyle;shape=connector;rounded=0;orthogonalLoop=1;jettySize=auto;html=1;strokeColor=default;align=center;verticalAlign=middle;fontFamily=Helvetica;fontSize=11;fontColor=default;labelBackgroundColor=default;endArrow=none;endFill=0;" edge="1" parent="1" source="k1fIb4RxcU1VKoB4foVe-31" target="k1fIb4RxcU1VKoB4foVe-30">
          <mxGeometry relative="1" as="geometry" />
        </mxCell>
        <mxCell id="k1fIb4RxcU1VKoB4foVe-31" value="designa" style="strokeWidth=1;html=1;shape=mxgraph.flowchart.decision;whiteSpace=wrap;fontFamily=Helvetica;fontSize=11;labelBackgroundColor=none;perimeterSpacing=0;fillColor=#647687;strokeColor=#314354;fontColor=#ffffff;" vertex="1" parent="1">
          <mxGeometry x="587.5" y="420" width="85" height="40" as="geometry" />
        </mxCell>
        <mxCell id="k1fIb4RxcU1VKoB4foVe-50" style="edgeStyle=orthogonalEdgeStyle;shape=connector;rounded=0;orthogonalLoop=1;jettySize=auto;html=1;entryX=1;entryY=0.5;entryDx=0;entryDy=0;strokeColor=default;align=center;verticalAlign=middle;fontFamily=Helvetica;fontSize=11;fontColor=default;labelBackgroundColor=default;endArrow=none;endFill=0;" edge="1" parent="1" source="k1fIb4RxcU1VKoB4foVe-35" target="k1fIb4RxcU1VKoB4foVe-10">
          <mxGeometry relative="1" as="geometry">
            <Array as="points">
              <mxPoint x="60" y="530" />
              <mxPoint x="-40" y="530" />
            </Array>
          </mxGeometry>
        </mxCell>
        <mxCell id="jxAx1_0Zsr2QQ7BR5hU3-26" style="edgeStyle=orthogonalEdgeStyle;shape=connector;rounded=0;orthogonalLoop=1;jettySize=auto;html=1;entryX=0;entryY=0.5;entryDx=0;entryDy=0;strokeColor=default;align=center;verticalAlign=middle;fontFamily=Helvetica;fontSize=11;fontColor=default;labelBackgroundColor=default;endArrow=none;endFill=0;" edge="1" parent="1" source="k1fIb4RxcU1VKoB4foVe-35" target="k1fIb4RxcU1VKoB4foVe-13">
          <mxGeometry relative="1" as="geometry">
            <Array as="points">
              <mxPoint x="63" y="340" />
            </Array>
          </mxGeometry>
        </mxCell>
        <mxCell id="k1fIb4RxcU1VKoB4foVe-35" value="atiende" style="strokeWidth=1;html=1;shape=mxgraph.flowchart.decision;whiteSpace=wrap;fontFamily=Helvetica;fontSize=11;labelBackgroundColor=none;perimeterSpacing=0;fillColor=#647687;strokeColor=#314354;fontColor=#ffffff;" vertex="1" parent="1">
          <mxGeometry x="20" y="420" width="85" height="40" as="geometry" />
        </mxCell>
        <mxCell id="k1fIb4RxcU1VKoB4foVe-49" style="edgeStyle=orthogonalEdgeStyle;shape=connector;rounded=0;orthogonalLoop=1;jettySize=auto;html=1;entryX=0.5;entryY=0;entryDx=0;entryDy=0;entryPerimeter=0;strokeColor=default;align=center;verticalAlign=middle;fontFamily=Helvetica;fontSize=11;fontColor=default;labelBackgroundColor=default;endArrow=none;endFill=0;" edge="1" parent="1" source="k1fIb4RxcU1VKoB4foVe-13" target="k1fIb4RxcU1VKoB4foVe-25">
          <mxGeometry relative="1" as="geometry" />
        </mxCell>
        <mxCell id="k1fIb4RxcU1VKoB4foVe-56" value="" style="edgeStyle=orthogonalEdgeStyle;shape=connector;rounded=0;orthogonalLoop=1;jettySize=auto;html=1;strokeColor=default;align=center;verticalAlign=middle;fontFamily=Helvetica;fontSize=11;fontColor=default;labelBackgroundColor=default;endArrow=none;endFill=0;" edge="1" parent="1" source="k1fIb4RxcU1VKoB4foVe-53" target="k1fIb4RxcU1VKoB4foVe-55">
          <mxGeometry relative="1" as="geometry" />
        </mxCell>
        <mxCell id="k1fIb4RxcU1VKoB4foVe-53" value="tiene" style="strokeWidth=1;html=1;shape=mxgraph.flowchart.decision;whiteSpace=wrap;fontFamily=Helvetica;fontSize=11;labelBackgroundColor=none;perimeterSpacing=0;fillColor=#647687;strokeColor=#314354;fontColor=#ffffff;" vertex="1" parent="1">
          <mxGeometry x="197.5" y="420" width="85" height="40" as="geometry" />
        </mxCell>
        <mxCell id="k1fIb4RxcU1VKoB4foVe-55" value="DISPONIBILIDAD" style="whiteSpace=wrap;html=1;align=center;fillColor=#1ba1e2;fontColor=#ffffff;strokeColor=#006EAF;" vertex="1" parent="1">
          <mxGeometry x="190" y="500" width="100" height="40" as="geometry" />
        </mxCell>
        <mxCell id="k1fIb4RxcU1VKoB4foVe-57" value="&lt;font style=&quot;font-size: 14px;&quot;&gt;1&lt;/font&gt;&lt;div&gt;&lt;font style=&quot;font-size: 14px;&quot;&gt;:&lt;/font&gt;&lt;/div&gt;&lt;div&gt;&lt;font style=&quot;font-size: 14px;&quot;&gt;N&lt;/font&gt;&lt;/div&gt;" style="text;html=1;align=center;verticalAlign=middle;resizable=0;points=[];autosize=1;strokeColor=none;fillColor=none;fontFamily=Helvetica;fontSize=11;fontColor=default;labelBackgroundColor=none;" vertex="1" parent="1">
          <mxGeometry x="282.5" y="410" width="30" height="60" as="geometry" />
        </mxCell>
        <mxCell id="k1fIb4RxcU1VKoB4foVe-58" value="&lt;font style=&quot;font-size: 14px;&quot;&gt;1&lt;/font&gt;&lt;div&gt;&lt;font style=&quot;font-size: 14px;&quot;&gt;:&lt;/font&gt;&lt;/div&gt;&lt;div&gt;&lt;font style=&quot;font-size: 14px;&quot;&gt;N&lt;/font&gt;&lt;/div&gt;" style="text;html=1;align=center;verticalAlign=middle;resizable=0;points=[];autosize=1;strokeColor=none;fillColor=none;fontFamily=Helvetica;fontSize=11;fontColor=default;labelBackgroundColor=none;" vertex="1" parent="1">
          <mxGeometry x="672.5" y="410" width="30" height="60" as="geometry" />
        </mxCell>
        <mxCell id="k1fIb4RxcU1VKoB4foVe-59" value="&lt;font style=&quot;font-size: 12px;&quot;&gt;&lt;b&gt;usuario_id (PK)&lt;/b&gt;&lt;/font&gt;&lt;div&gt;&lt;font style=&quot;font-size: 12px;&quot;&gt;nombre&lt;/font&gt;&lt;/div&gt;&lt;div&gt;&lt;font style=&quot;font-size: 12px;&quot;&gt;email&lt;/font&gt;&lt;/div&gt;&lt;div&gt;&lt;font style=&quot;font-size: 12px;&quot;&gt;contraseÃ±a&lt;/font&gt;&lt;/div&gt;" style="text;html=1;align=center;verticalAlign=middle;resizable=0;points=[];autosize=1;strokeColor=none;fillColor=none;fontFamily=Helvetica;fontSize=11;fontColor=default;labelBackgroundColor=none;" vertex="1" parent="1">
          <mxGeometry x="295" y="105" width="110" height="70" as="geometry" />
        </mxCell>
        <mxCell id="k1fIb4RxcU1VKoB4foVe-60" value="&lt;font style=&quot;font-size: 12px;&quot;&gt;&lt;b&gt;servicio_id (PK)&lt;/b&gt;&lt;/font&gt;&lt;div&gt;&lt;span style=&quot;font-size: 12px;&quot;&gt;nombre&lt;br&gt;&lt;/span&gt;&lt;div&gt;&lt;font style=&quot;font-size: 12px;&quot;&gt;descripciÃ³n&lt;/font&gt;&lt;/div&gt;&lt;div&gt;&lt;font style=&quot;font-size: 12px;&quot;&gt;duraciÃ³n&lt;/font&gt;&lt;/div&gt;&lt;div&gt;&lt;font style=&quot;font-size: 12px;&quot;&gt;precio_unitario&lt;/font&gt;&lt;/div&gt;&lt;/div&gt;" style="text;html=1;align=center;verticalAlign=middle;resizable=0;points=[];autosize=1;strokeColor=none;fillColor=none;fontFamily=Helvetica;fontSize=11;fontColor=default;labelBackgroundColor=none;" vertex="1" parent="1">
          <mxGeometry x="390" y="560" width="110" height="90" as="geometry" />
        </mxCell>
        <mxCell id="k1fIb4RxcU1VKoB4foVe-61" value="&lt;div&gt;&lt;font style=&quot;font-size: 12px;&quot;&gt;&lt;b&gt;cita_id (PK)&lt;/b&gt;&lt;/font&gt;&lt;/div&gt;&lt;div&gt;&lt;font style=&quot;font-size: 12px;&quot;&gt;cliente_id (FK)&lt;/font&gt;&lt;/div&gt;&lt;div&gt;&lt;font style=&quot;font-size: 12px;&quot;&gt;estilista_id (FK)&lt;/font&gt;&lt;/div&gt;&lt;div&gt;&lt;font style=&quot;font-size: 12px;&quot;&gt;estado(confirmada, cancelada, finalizada)&lt;/font&gt;&lt;/div&gt;&lt;div&gt;&lt;font style=&quot;font-size: 12px;&quot;&gt;fecha&lt;/font&gt;&lt;/div&gt;&lt;div&gt;&lt;font style=&quot;font-size: 12px;&quot;&gt;telefono_cliente&lt;br&gt;hora_inicio&lt;br&gt;hora_fin&lt;/font&gt;&lt;/div&gt;&lt;div&gt;&lt;font style=&quot;font-size: 12px;&quot;&gt;precio_total&lt;/font&gt;&lt;/div&gt;&lt;div&gt;&lt;br&gt;&lt;/div&gt;" style="text;html=1;align=center;verticalAlign=middle;resizable=0;points=[];autosize=1;strokeColor=none;fillColor=none;fontFamily=Helvetica;fontSize=11;fontColor=default;labelBackgroundColor=none;glass=0;" vertex="1" parent="1">
          <mxGeometry x="-215" y="560" width="250" height="160" as="geometry" />
        </mxCell>
        <mxCell id="k1fIb4RxcU1VKoB4foVe-62" value="&lt;div&gt;&lt;font&gt;La hora de inicio, fin y el precio total se calcula segÃºn los servicios escogidos en la cita.&lt;/font&gt;&lt;/div&gt;" style="text;html=1;align=center;verticalAlign=middle;resizable=0;points=[];autosize=1;strokeColor=none;fillColor=none;fontFamily=Helvetica;fontSize=12;fontColor=default;labelBackgroundColor=none;" vertex="1" parent="1">
          <mxGeometry x="-335" y="730" width="490" height="30" as="geometry" />
        </mxCell>
        <mxCell id="jxAx1_0Zsr2QQ7BR5hU3-23" style="edgeStyle=orthogonalEdgeStyle;shape=connector;rounded=0;orthogonalLoop=1;jettySize=auto;html=1;entryX=0.5;entryY=1;entryDx=0;entryDy=0;strokeColor=default;align=center;verticalAlign=middle;fontFamily=Helvetica;fontSize=11;fontColor=default;labelBackgroundColor=default;endArrow=none;endFill=0;" edge="1" parent="1" source="k1fIb4RxcU1VKoB4foVe-66" target="k1fIb4RxcU1VKoB4foVe-9">
          <mxGeometry relative="1" as="geometry" />
        </mxCell>
        <mxCell id="jxAx1_0Zsr2QQ7BR5hU3-24" style="edgeStyle=orthogonalEdgeStyle;shape=connector;rounded=0;orthogonalLoop=1;jettySize=auto;html=1;entryX=1;entryY=0.75;entryDx=0;entryDy=0;strokeColor=default;align=center;verticalAlign=middle;fontFamily=Helvetica;fontSize=11;fontColor=default;labelBackgroundColor=default;endArrow=none;endFill=0;" edge="1" parent="1" source="k1fIb4RxcU1VKoB4foVe-66" target="k1fIb4RxcU1VKoB4foVe-10">
          <mxGeometry relative="1" as="geometry">
            <Array as="points">
              <mxPoint x="60" y="680" />
              <mxPoint x="60" y="550" />
            </Array>
          </mxGeometry>
        </mxCell>
        <mxCell id="k1fIb4RxcU1VKoB4foVe-66" value="tiene" style="strokeWidth=1;html=1;shape=mxgraph.flowchart.decision;whiteSpace=wrap;fontFamily=Helvetica;fontSize=11;labelBackgroundColor=none;perimeterSpacing=0;fillColor=#647687;strokeColor=#314354;fontColor=#ffffff;" vertex="1" parent="1">
          <mxGeometry x="197.5" y="660" width="85" height="40" as="geometry" />
        </mxCell>
        <mxCell id="k1fIb4RxcU1VKoB4foVe-71" value="&lt;font style=&quot;font-size: 14px;&quot;&gt;N:M&lt;/font&gt;" style="text;html=1;align=center;verticalAlign=middle;resizable=0;points=[];autosize=1;strokeColor=none;fillColor=none;fontFamily=Helvetica;fontSize=11;fontColor=default;labelBackgroundColor=none;" vertex="1" parent="1">
          <mxGeometry x="215" y="630" width="50" height="30" as="geometry" />
        </mxCell>
        <mxCell id="k1fIb4RxcU1VKoB4foVe-73" value="&lt;font style=&quot;font-size: 14px;&quot;&gt;1&lt;/font&gt;&lt;div&gt;&lt;font style=&quot;font-size: 14px;&quot;&gt;:&lt;/font&gt;&lt;/div&gt;&lt;div&gt;&lt;font style=&quot;font-size: 14px;&quot;&gt;N&lt;/font&gt;&lt;/div&gt;" style="text;html=1;align=center;verticalAlign=middle;resizable=0;points=[];autosize=1;strokeColor=none;fillColor=none;fontFamily=Helvetica;fontSize=11;fontColor=default;labelBackgroundColor=none;" vertex="1" parent="1">
          <mxGeometry x="-162.5" y="410" width="30" height="60" as="geometry" />
        </mxCell>
        <mxCell id="k1fIb4RxcU1VKoB4foVe-75" value="&lt;font style=&quot;font-size: 14px;&quot;&gt;1&lt;/font&gt;&lt;div&gt;&lt;font style=&quot;font-size: 14px;&quot;&gt;:&lt;/font&gt;&lt;/div&gt;&lt;div&gt;&lt;font style=&quot;font-size: 14px;&quot;&gt;N&lt;/font&gt;&lt;/div&gt;" style="text;html=1;align=center;verticalAlign=middle;resizable=0;points=[];autosize=1;strokeColor=none;fillColor=none;fontFamily=Helvetica;fontSize=11;fontColor=default;labelBackgroundColor=none;" vertex="1" parent="1">
          <mxGeometry x="110" y="410" width="30" height="60" as="geometry" />
        </mxCell>
        <mxCell id="k1fIb4RxcU1VKoB4foVe-77" value="&lt;span style=&quot;font-size: 14px;&quot;&gt;N&lt;/span&gt;&lt;br&gt;&lt;div&gt;&lt;font style=&quot;font-size: 14px;&quot;&gt;:&lt;/font&gt;&lt;/div&gt;&lt;div&gt;&lt;span style=&quot;font-size: 14px;&quot;&gt;M&lt;/span&gt;&lt;/div&gt;" style="text;html=1;align=center;verticalAlign=middle;resizable=0;points=[];autosize=1;strokeColor=none;fillColor=none;fontFamily=Helvetica;fontSize=11;fontColor=default;labelBackgroundColor=none;" vertex="1" parent="1">
          <mxGeometry x="430" y="410" width="40" height="60" as="geometry" />
        </mxCell>
        <mxCell id="k1fIb4RxcU1VKoB4foVe-80" value="&lt;font style=&quot;font-size: 12px;&quot;&gt;&lt;b&gt;disp_id (PK)&lt;/b&gt;&lt;/font&gt;&lt;div&gt;&lt;span style=&quot;font-size: 12px;&quot;&gt;estilista_id (FK)&lt;br&gt;&lt;/span&gt;&lt;div&gt;&lt;span style=&quot;font-size: 12px; background-color: transparent; color: light-dark(rgb(0, 0, 0), rgb(255, 255, 255));&quot;&gt;dia_semana&lt;br&gt;hora_inicio&lt;/span&gt;&lt;/div&gt;&lt;div&gt;&lt;font style=&quot;font-size: 12px;&quot;&gt;hora_fin&lt;/font&gt;&lt;/div&gt;&lt;/div&gt;" style="text;html=1;align=center;verticalAlign=middle;resizable=0;points=[];autosize=1;strokeColor=none;fillColor=none;fontFamily=Helvetica;fontSize=11;fontColor=default;labelBackgroundColor=none;" vertex="1" parent="1">
          <mxGeometry x="185" y="540" width="110" height="90" as="geometry" />
        </mxCell>
        <mxCell id="k1fIb4RxcU1VKoB4foVe-81" value="&lt;font style=&quot;font-size: 12px;&quot;&gt;&lt;b&gt;excep_horario_id (PK)&lt;/b&gt;&lt;/font&gt;&lt;div&gt;&lt;span style=&quot;font-size: 12px;&quot;&gt;estilista_id (FK) (opcional)&lt;/span&gt;&lt;/div&gt;&lt;div&gt;&lt;span style=&quot;font-size: 12px;&quot;&gt;admin_id (FK)&lt;br&gt;&lt;/span&gt;&lt;div&gt;&lt;span style=&quot;font-size: 12px;&quot;&gt;fecha&lt;/span&gt;&lt;/div&gt;&lt;div&gt;&lt;font style=&quot;font-size: 12px;&quot;&gt;hora_inicio (opcional)&lt;/font&gt;&lt;/div&gt;&lt;div&gt;&lt;font style=&quot;font-size: 12px;&quot;&gt;hora_fin&amp;nbsp;&lt;/font&gt;&lt;span style=&quot;font-size: 12px; color: light-dark(rgb(0, 0, 0), rgb(255, 255, 255));&quot;&gt;(opcional)&lt;br&gt;tipo(disponible, no_disponible)&lt;/span&gt;&lt;/div&gt;&lt;/div&gt;&lt;div&gt;&lt;font style=&quot;font-size: 12px;&quot;&gt;motivo&lt;/font&gt;&lt;/div&gt;" style="text;html=1;align=center;verticalAlign=middle;resizable=0;points=[];autosize=1;strokeColor=none;fillColor=none;fontFamily=Helvetica;fontSize=11;fontColor=default;labelBackgroundColor=none;" vertex="1" parent="1">
          <mxGeometry x="672.5" y="490" width="190" height="130" as="geometry" />
        </mxCell>
        <mxCell id="k1fIb4RxcU1VKoB4foVe-89" value="&lt;font style=&quot;font-size: 14px;&quot;&gt;0:N&lt;/font&gt;" style="text;html=1;align=center;verticalAlign=middle;resizable=0;points=[];autosize=1;strokeColor=none;fillColor=none;fontFamily=Helvetica;fontSize=11;fontColor=default;labelBackgroundColor=none;" vertex="1" parent="1">
          <mxGeometry x="490" y="340" width="50" height="30" as="geometry" />
        </mxCell>
        <mxCell id="k1fIb4RxcU1VKoB4foVe-90" value="&lt;div style=&quot;forced-color-adjust: none; color: rgb(0, 0, 0); font-family: Helvetica; font-size: 11px; font-style: normal; font-variant-ligatures: normal; font-variant-caps: normal; font-weight: 400; letter-spacing: normal; orphans: 2; text-align: center; text-indent: 0px; text-transform: none; widows: 2; word-spacing: 0px; -webkit-text-stroke-width: 0px; white-space: nowrap; text-decoration-thickness: initial; text-decoration-style: initial; text-decoration-color: initial;&quot;&gt;&lt;font style=&quot;forced-color-adjust: none; font-size: 12px;&quot;&gt;hora_inicio&lt;/font&gt;&lt;/div&gt;&lt;div style=&quot;forced-color-adjust: none; color: rgb(0, 0, 0); font-family: Helvetica; font-size: 11px; font-style: normal; font-variant-ligatures: normal; font-variant-caps: normal; font-weight: 400; letter-spacing: normal; orphans: 2; text-align: center; text-indent: 0px; text-transform: none; widows: 2; word-spacing: 0px; -webkit-text-stroke-width: 0px; white-space: nowrap; text-decoration-thickness: initial; text-decoration-style: initial; text-decoration-color: initial;&quot;&gt;&lt;font style=&quot;forced-color-adjust: none; font-size: 12px;&quot;&gt;hora_fin&lt;br&gt;precio_final&lt;/font&gt;&lt;/div&gt;" style="text;whiteSpace=wrap;html=1;fontFamily=Helvetica;fontSize=11;fontColor=default;labelBackgroundColor=none;" vertex="1" parent="1">
          <mxGeometry x="207.5" y="710" width="65" height="50" as="geometry" />
        </mxCell>
        <mxCell id="k1fIb4RxcU1VKoB4foVe-91" value="&lt;div&gt;&lt;font&gt;Si no se asigna un estilista se referira a todos,&amp;nbsp;&lt;/font&gt;&lt;/div&gt;&lt;div&gt;&lt;font&gt;si no se asigna una hora serÃ¡ null y equivaldrÃ¡ al dÃ­a entero.&lt;/font&gt;&lt;/div&gt;" style="text;html=1;align=center;verticalAlign=middle;resizable=0;points=[];autosize=1;strokeColor=none;fillColor=none;fontFamily=Helvetica;fontSize=12;fontColor=default;labelBackgroundColor=none;" vertex="1" parent="1">
          <mxGeometry x="590" y="640" width="340" height="40" as="geometry" />
        </mxCell>
        <mxCell id="jxAx1_0Zsr2QQ7BR5hU3-2" value="&lt;div&gt;&lt;span style=&quot;font-size: 12px;&quot;&gt;rol&lt;/span&gt;&lt;/div&gt;" style="text;html=1;align=center;verticalAlign=middle;resizable=0;points=[];autosize=1;strokeColor=none;fillColor=none;fontFamily=Helvetica;fontSize=11;fontColor=default;labelBackgroundColor=none;" vertex="1" parent="1">
          <mxGeometry x="172.5" y="202.5" width="40" height="30" as="geometry" />
        </mxCell>
        <mxCell id="jxAx1_0Zsr2QQ7BR5hU3-7" value="&lt;font style=&quot;font-size: 12px;&quot;&gt;(1,1)&lt;/font&gt;" style="text;html=1;align=center;verticalAlign=middle;resizable=0;points=[];autosize=1;strokeColor=none;fillColor=none;fontFamily=Helvetica;fontSize=11;fontColor=default;labelBackgroundColor=none;" vertex="1" parent="1">
          <mxGeometry x="190" y="360" width="50" height="30" as="geometry" />
        </mxCell>
        <mxCell id="jxAx1_0Zsr2QQ7BR5hU3-8" value="&lt;font style=&quot;font-size: 12px;&quot;&gt;(0,n)&lt;/font&gt;" style="text;html=1;align=center;verticalAlign=middle;resizable=0;points=[];autosize=1;strokeColor=none;fillColor=none;fontFamily=Helvetica;fontSize=11;fontColor=default;labelBackgroundColor=none;" vertex="1" parent="1">
          <mxGeometry x="190" y="470" width="50" height="30" as="geometry" />
        </mxCell>
        <mxCell id="jxAx1_0Zsr2QQ7BR5hU3-9" value="&lt;font style=&quot;font-size: 12px;&quot;&gt;(1,1)&lt;/font&gt;" style="text;html=1;align=center;verticalAlign=middle;resizable=0;points=[];autosize=1;strokeColor=none;fillColor=none;fontFamily=Helvetica;fontSize=11;fontColor=default;labelBackgroundColor=none;" vertex="1" parent="1">
          <mxGeometry x="630" y="360" width="50" height="30" as="geometry" />
        </mxCell>
        <mxCell id="jxAx1_0Zsr2QQ7BR5hU3-10" value="&lt;font style=&quot;font-size: 12px;&quot;&gt;(0,n)&lt;/font&gt;" style="text;html=1;align=center;verticalAlign=middle;resizable=0;points=[];autosize=1;strokeColor=none;fillColor=none;fontFamily=Helvetica;fontSize=11;fontColor=default;labelBackgroundColor=none;" vertex="1" parent="1">
          <mxGeometry x="630" y="490" width="50" height="30" as="geometry" />
        </mxCell>
        <mxCell id="jxAx1_0Zsr2QQ7BR5hU3-11" value="&lt;font style=&quot;font-size: 12px;&quot;&gt;(0,1)&lt;/font&gt;" style="text;html=1;align=center;verticalAlign=middle;resizable=0;points=[];autosize=1;strokeColor=none;fillColor=none;fontFamily=Helvetica;fontSize=11;fontColor=default;labelBackgroundColor=none;" vertex="1" parent="1">
          <mxGeometry x="290" y="300" width="50" height="30" as="geometry" />
        </mxCell>
        <mxCell id="jxAx1_0Zsr2QQ7BR5hU3-12" value="&lt;font style=&quot;font-size: 12px;&quot;&gt;(0,n)&lt;/font&gt;" style="text;html=1;align=center;verticalAlign=middle;resizable=0;points=[];autosize=1;strokeColor=none;fillColor=none;fontFamily=Helvetica;fontSize=11;fontColor=default;labelBackgroundColor=none;" vertex="1" parent="1">
          <mxGeometry x="530" y="510" width="50" height="30" as="geometry" />
        </mxCell>
        <mxCell id="jxAx1_0Zsr2QQ7BR5hU3-14" style="edgeStyle=orthogonalEdgeStyle;shape=connector;rounded=0;orthogonalLoop=1;jettySize=auto;html=1;entryX=0;entryY=0.5;entryDx=0;entryDy=0;strokeColor=default;align=center;verticalAlign=middle;fontFamily=Helvetica;fontSize=11;fontColor=default;labelBackgroundColor=default;endArrow=none;endFill=0;" edge="1" parent="1" source="jxAx1_0Zsr2QQ7BR5hU3-13" target="k1fIb4RxcU1VKoB4foVe-30">
          <mxGeometry relative="1" as="geometry">
            <Array as="points">
              <mxPoint x="480" y="540" />
            </Array>
          </mxGeometry>
        </mxCell>
        <mxCell id="jxAx1_0Zsr2QQ7BR5hU3-13" value="tiene" style="strokeWidth=1;html=1;shape=mxgraph.flowchart.decision;whiteSpace=wrap;fontFamily=Helvetica;fontSize=11;labelBackgroundColor=none;perimeterSpacing=0;fillColor=#647687;strokeColor=#314354;fontColor=#ffffff;" vertex="1" parent="1">
          <mxGeometry x="440" y="360" width="85" height="40" as="geometry" />
        </mxCell>
        <mxCell id="jxAx1_0Zsr2QQ7BR5hU3-15" style="edgeStyle=orthogonalEdgeStyle;shape=connector;rounded=0;orthogonalLoop=1;jettySize=auto;html=1;exitX=0.75;exitY=0;exitDx=0;exitDy=0;entryX=0.5;entryY=0;entryDx=0;entryDy=0;entryPerimeter=0;strokeColor=default;align=center;verticalAlign=middle;fontFamily=Helvetica;fontSize=11;fontColor=default;labelBackgroundColor=default;endArrow=none;endFill=0;" edge="1" parent="1" source="k1fIb4RxcU1VKoB4foVe-13" target="jxAx1_0Zsr2QQ7BR5hU3-13">
          <mxGeometry relative="1" as="geometry">
            <Array as="points">
              <mxPoint x="265" y="300" />
              <mxPoint x="480" y="300" />
              <mxPoint x="480" y="360" />
            </Array>
          </mxGeometry>
        </mxCell>
        <mxCell id="jxAx1_0Zsr2QQ7BR5hU3-17" value="&lt;font style=&quot;font-size: 12px;&quot;&gt;(1,1)&lt;/font&gt;" style="text;html=1;align=center;verticalAlign=middle;resizable=0;points=[];autosize=1;strokeColor=none;fillColor=none;fontFamily=Helvetica;fontSize=11;fontColor=default;labelBackgroundColor=none;" vertex="1" parent="1">
          <mxGeometry x="-140" y="360" width="50" height="30" as="geometry" />
        </mxCell>
        <mxCell id="jxAx1_0Zsr2QQ7BR5hU3-18" value="&lt;font style=&quot;font-size: 12px;&quot;&gt;(0,n)&lt;/font&gt;" style="text;html=1;align=center;verticalAlign=middle;resizable=0;points=[];autosize=1;strokeColor=none;fillColor=none;fontFamily=Helvetica;fontSize=11;fontColor=default;labelBackgroundColor=none;" vertex="1" parent="1">
          <mxGeometry x="-140" y="490" width="50" height="30" as="geometry" />
        </mxCell>
        <mxCell id="jxAx1_0Zsr2QQ7BR5hU3-19" value="&lt;font style=&quot;font-size: 12px;&quot;&gt;(1,1)&lt;/font&gt;" style="text;html=1;align=center;verticalAlign=middle;resizable=0;points=[];autosize=1;strokeColor=none;fillColor=none;fontFamily=Helvetica;fontSize=11;fontColor=default;labelBackgroundColor=none;" vertex="1" parent="1">
          <mxGeometry x="140" y="310" width="50" height="30" as="geometry" />
        </mxCell>
        <mxCell id="jxAx1_0Zsr2QQ7BR5hU3-20" value="&lt;font style=&quot;font-size: 12px;&quot;&gt;(0,n)&lt;/font&gt;" style="text;html=1;align=center;verticalAlign=middle;resizable=0;points=[];autosize=1;strokeColor=none;fillColor=none;fontFamily=Helvetica;fontSize=11;fontColor=default;labelBackgroundColor=none;" vertex="1" parent="1">
          <mxGeometry x="-40" y="500" width="50" height="30" as="geometry" />
        </mxCell>
        <mxCell id="jxAx1_0Zsr2QQ7BR5hU3-22" value="&lt;font style=&quot;font-size: 12px;&quot;&gt;(1,1)&lt;/font&gt;" style="text;html=1;align=center;verticalAlign=middle;resizable=0;points=[];autosize=1;strokeColor=none;fillColor=none;fontFamily=Helvetica;fontSize=11;fontColor=default;labelBackgroundColor=none;" vertex="1" parent="1">
          <mxGeometry x="-40" y="550" width="50" height="30" as="geometry" />
        </mxCell>
        <mxCell id="jxAx1_0Zsr2QQ7BR5hU3-27" value="&lt;font style=&quot;font-size: 12px;&quot;&gt;(1,n)&lt;/font&gt;" style="text;html=1;align=center;verticalAlign=middle;resizable=0;points=[];autosize=1;strokeColor=none;fillColor=none;fontFamily=Helvetica;fontSize=11;fontColor=default;labelBackgroundColor=none;" vertex="1" parent="1">
          <mxGeometry x="157.5" y="650" width="50" height="30" as="geometry" />
        </mxCell>
        <mxCell id="jxAx1_0Zsr2QQ7BR5hU3-28" value="&lt;font style=&quot;font-size: 12px;&quot;&gt;(1,1)&lt;/font&gt;" style="text;html=1;align=center;verticalAlign=middle;resizable=0;points=[];autosize=1;strokeColor=none;fillColor=none;fontFamily=Helvetica;fontSize=11;fontColor=default;labelBackgroundColor=none;" vertex="1" parent="1">
          <mxGeometry x="342.5" y="560" width="50" height="30" as="geometry" />
        </mxCell>
        <mxCell id="jxAx1_0Zsr2QQ7BR5hU3-29" value="&lt;font style=&quot;font-size: 12px;&quot;&gt;(1,n)&lt;/font&gt;" style="text;html=1;align=center;verticalAlign=middle;resizable=0;points=[];autosize=1;strokeColor=none;fillColor=none;fontFamily=Helvetica;fontSize=11;fontColor=default;labelBackgroundColor=none;" vertex="1" parent="1">
          <mxGeometry x="272.5" y="650" width="50" height="30" as="geometry" />
        </mxCell>
        <mxCell id="jxAx1_0Zsr2QQ7BR5hU3-31" value="&lt;font style=&quot;font-size: 12px;&quot;&gt;(1,1)&lt;/font&gt;" style="text;html=1;align=center;verticalAlign=middle;resizable=0;points=[];autosize=1;strokeColor=none;fillColor=none;fontFamily=Helvetica;fontSize=11;fontColor=default;labelBackgroundColor=none;" vertex="1" parent="1">
          <mxGeometry x="290" y="340" width="50" height="30" as="geometry" />
        </mxCell>
        <mxCell id="jxAx1_0Zsr2QQ7BR5hU3-32" value="&lt;font style=&quot;font-size: 12px;&quot;&gt;(0,n)&lt;/font&gt;" style="text;html=1;align=center;verticalAlign=middle;resizable=0;points=[];autosize=1;strokeColor=none;fillColor=none;fontFamily=Helvetica;fontSize=11;fontColor=default;labelBackgroundColor=none;" vertex="1" parent="1">
          <mxGeometry x="342.5" y="400" width="50" height="30" as="geometry" />
        </mxCell>
        <mxCell id="jxAx1_0Zsr2QQ7BR5hU3-33" value="&lt;font style=&quot;font-size: 12px;&quot;&gt;(0,n)&lt;/font&gt;" style="text;html=1;align=center;verticalAlign=middle;resizable=0;points=[];autosize=1;strokeColor=none;fillColor=none;fontFamily=Helvetica;fontSize=11;fontColor=default;labelBackgroundColor=none;" vertex="1" parent="1">
          <mxGeometry x="342.5" y="450" width="50" height="30" as="geometry" />
        </mxCell>
        <mxCell id="jxAx1_0Zsr2QQ7BR5hU3-34" value="&lt;font style=&quot;font-size: 12px;&quot;&gt;(1,1)&lt;/font&gt;" style="text;html=1;align=center;verticalAlign=middle;resizable=0;points=[];autosize=1;strokeColor=none;fillColor=none;fontFamily=Helvetica;fontSize=11;fontColor=default;labelBackgroundColor=none;" vertex="1" parent="1">
          <mxGeometry x="342.5" y="490" width="50" height="30" as="geometry" />
        </mxCell>
      </root>
    </mxGraphModel>
  </diagram>
</mxfile>
